<svg xmlns="http://www.w3.org/2000/svg" xmlns:xlink="http://www.w3.org/1999/xlink" version="1.1" width="1000" height="1000" viewBox="0 0 1000 1000" xml:space="preserve">
<desc>Created with Fabric.js 3.5.0</desc>
<defs>
</defs>
<rect x="0" y="0" width="100%" height="100%" fill="rgba(255,255,255,0)"/>
<g transform="matrix(1 0 0 1 499.9833 500.0027)" id="907659">
<g style="">
		<g transform="matrix(0.9091 0 0 0.9091 -409.0738 -409.0931)" id="708117">
<rect style="stroke: none; stroke-width: 1; stroke-dasharray: none; stroke-linecap: butt; stroke-dashoffset: 0; stroke-linejoin: miter; stroke-miterlimit: 4; is-custom-font: none; font-file-url: none; fill: rgb(255,255,255); fill-opacity: 0; fill-rule: nonzero; opacity: 1;" x="-50" y="-50" rx="0" ry="0" width="100" height="100"/>
</g>
		<g transform="matrix(13.9885 0 0 13.9885 248.5236 0.2257)" id="331128">
<path style="stroke: none; stroke-width: 1; stroke-dasharray: none; stroke-linecap: butt; stroke-dashoffset: 0; stroke-linejoin: miter; stroke-miterlimit: 4; is-custom-font: none; font-file-url: none; fill: rgb(136,57,239); fill-rule: nonzero; opacity: 1;" transform=" translate(-50.7592, -33.0217)" d="M 61.8 26.2 c 2.7 -4.1 0.8 -9.7 -3.9 -11.2 c -0.5 2.2 -1.4 3.8 -1.4 4 c -0.1 0.2 -0.4 0.4 -0.6 0.4 c -0.1 0 -0.2 0 -0.4 -0.1 c -0.3 -0.2 -0.5 -0.6 -0.3 -1 c 0 0 0.9 -1.5 1.3 -3.6 l 0 0 c 0 -0.1 0 -0.1 0 -0.2 c 1.2 -6.7 -4.1 -10.3 -8.3 -9.4 c -2 -4 -7 -5.2 -10.5 -3 c 0 0 0 0 0 0 c -0.8 0.5 -1.2 1.3 -1.2 2.2 v 56 c 0 0.9 0.4 1.6 1.1 2.3 c 3.8 4.2 10.7 2.7 12.6 -2.5 c 4.6 1 9.4 -3.1 8.7 -8.2 c -1.7 0.3 -3.6 0.3 -5.9 -0.4 c -0.4 -0.1 -0.6 -0.5 -0.5 -0.9 c 0.1 -0.4 0.5 -0.6 0.9 -0.5 c 6.7 2 10.9 -2 10.9 -6.8 c 0 -2 -0.8 -3.8 -2 -5.1 C 66.1 35 65.9 29.1 61.8 26.2 z M 57.2 21.6 c 2.5 3.6 0.9 8.1 -0.5 7.2 c -0.3 -0.2 -0.4 -0.7 -0.2 -1 c 1.6 -2.5 -0.4 -5.4 -0.4 -5.4 C 55.4 21.7 56.6 20.8 57.2 21.6 z M 54.9 25.1 c 0 0.4 -0.4 0.7 -0.8 0.7 c -2.5 -0.1 -4.6 1 -6.2 2.2 c 2.9 1.3 5.6 2.6 6.4 4.7 c 0.1 0.4 -0.1 0.8 -0.4 0.9 c -0.1 0 -0.2 0 -0.2 0 c -0.3 0 -0.6 -0.2 -0.7 -0.5 c -0.7 -2.1 -5.7 -3.8 -6.6 -4.4 c -2.9 -1.5 -3.8 -4.6 -4 -7 c 0 -0.4 0.3 -0.8 0.7 -0.8 c 0.4 0 0.8 0.3 0.8 0.7 c 0.2 1.9 0.8 4.3 2.8 5.6 c 1.7 -1.5 4.4 -3.1 7.7 -2.9 C 54.6 24.3 54.9 24.7 54.9 25.1 z M 45.4 16.7 c -0.2 -0.3 -0.2 -0.8 0.2 -1 c 0.3 -0.2 0.8 -0.2 1 0.2 c 0.1 0.2 2.6 3.7 0.5 7 c -0.2 0.3 -0.7 0.4 -1 0.2 c -0.3 -0.2 -0.4 -0.7 -0.2 -1 C 47.5 19.6 45.5 16.7 45.4 16.7 z M 38.7 4.7 c 1.6 -1.1 3.7 -0.6 5 0.4 c 2.5 1.9 3 5.4 5.2 7.1 c 0.9 0.7 2.3 1.1 3.3 0.4 c 0.8 -0.5 1.6 0.7 0.8 1.2 c -0.6 0.4 -1.3 0.6 -2 0.6 c -2.4 0 -4 -1.7 -5.2 -3.8 c -1.3 3.6 -5.2 2.2 -5.3 5.7 c 0 0.4 -0.3 0.7 -0.7 0.7 c 0 0 0 0 0 0 c -0.4 0 -0.7 -0.3 -0.7 -0.7 c 0.1 -3.5 3.4 -4.2 4.1 -4.6 c 1.1 -0.6 1.7 -2 1.4 -3.2 c 0 0 0 -0.1 0 -0.1 c -1.8 -3 -3.9 -3.2 -5 -2.5 c -0.3 0.2 -0.8 0.1 -1 -0.2 C 38.3 5.4 38.4 4.9 38.7 4.7 z M 38.6 31.9 c 0.4 -0.8 1.3 -1.2 2.3 -1.1 c 2.1 0.3 2.7 2.5 3.9 3 c 0.6 0.2 1.4 0 1.7 -0.6 c 0.2 -0.3 0.6 -0.5 1 -0.3 c 0.3 0.2 0.5 0.6 0.3 1 c -0.5 0.9 -1.5 1.4 -2.5 1.4 c -2.4 0 -3 -2.9 -4.6 -3.1 c -0.3 0 -0.7 0.1 -0.8 0.3 c -0.2 0.4 -0.6 0.5 -1 0.3 C 38.5 32.7 38.4 32.3 38.6 31.9 z M 39.1 39 c -0.1 -0.4 0.1 -0.8 0.4 -0.9 c 1.7 -0.6 3.2 -0.5 4.5 0.1 c 1.6 0.8 2.5 2.4 2.9 3.4 c 2.4 -1.3 4.9 -1.1 5.6 -2.7 c 0.3 -0.6 0.2 -1.3 -0.2 -2.1 c -0.2 -0.4 0 -0.8 0.3 -1 c 0.4 -0.2 0.8 0 1 0.3 c 0.6 1.3 0.7 2.4 0.2 3.4 c -1.2 2.5 -4.3 2 -6.9 3.8 c -3.3 2.2 -1.4 4.2 -2.9 4.2 c 0 0 0 0 0 0 c -0.4 0 -0.7 -0.3 -0.7 -0.7 c -0.1 -1.9 0.9 -3.3 2.4 -4.4 c -0.3 -0.7 -1 -2.2 -2.4 -2.9 c -1 -0.5 -2.1 -0.5 -3.4 -0.1 C 39.6 39.6 39.2 39.4 39.1 39 z M 52.8 54.8 c 0.3 -0.3 0.8 -0.3 1 0 c 0.3 0.3 0.3 0.8 0 1 c -1.5 1.4 -4.1 2.6 -6.5 2.3 c -1.2 3 -3.2 5.2 -6.4 4.6 c -0.4 -0.1 -0.7 -0.5 -0.6 -0.9 c 0.1 -0.4 0.5 -0.6 0.9 -0.6 c 2 0.4 3.6 -0.8 4.7 -3.5 c -2.2 -0.8 -4.1 -2.7 -5.6 -5.8 c -0.2 -0.4 0 -0.8 0.3 -1 c 0.4 -0.2 0.8 0 1 0.3 c 1.5 3.1 3.4 4.9 5.5 5.3 c 0 0 0 0 0 0 c 0 0 0 0 0 0 c 0 0 0 0 0.1 0 C 50.2 57.3 52.8 54.9 52.8 54.8 z M 54.9 46 c -0.9 0.8 -2.2 0.9 -3.1 1.3 c -1.2 0.4 -1.4 1.2 -1.1 1.6 c 0.6 0.8 -0.6 1.6 -1.2 0.9 C 49 49 49 48 49.5 47.2 c 1.1 -1.8 3.4 -1.4 4.4 -2.3 c 0.5 -0.4 0.6 -1.3 0.2 -1.8 c -0.2 -0.3 -0.2 -0.8 0.2 -1 c 0.3 -0.2 0.8 -0.2 1 0.2 C 56.1 43.4 55.9 45 54.9 46 z M 59.4 47.1 c -0.3 0.2 -0.8 0.2 -1 -0.1 c -0.2 -0.3 -0.2 -0.8 0.1 -1 c 1.9 -1.5 2.7 -4.5 0.6 -7.5 c -0.8 0.5 -1.8 0.9 -2.9 1.2 c -0.1 0 -0.1 0 -0.2 0 c -0.3 0 -0.6 -0.2 -0.7 -0.6 c -0.1 -0.4 0.1 -0.8 0.5 -0.9 c 2 -0.5 3.4 -1.5 4.3 -2.9 c 1.5 -2.6 0.6 -5.9 0.6 -5.9 c -0.1 -0.4 0.1 -0.8 0.5 -0.9 c 0.4 -0.1 0.8 0.1 0.9 0.5 c 0.8 2.6 0.4 6.3 -1.9 8.5 C 62.9 41.2 62 45.1 59.4 47.1 z" stroke-linecap="round"/>
</g>
		<g transform="matrix(13.9885 0 0 13.9885 248.5236 0.2257)" id="833071">
<path style="stroke: none; stroke-width: 1; stroke-dasharray: none; stroke-linecap: butt; stroke-dashoffset: 0; stroke-linejoin: miter; stroke-miterlimit: 4; is-custom-font: none; font-file-url: none; fill: rgb(136,57,239); fill-rule: nonzero; opacity: 1;" transform=" translate(-50.7592, -33.0217)" d="M 61.8 26.2 c 2.7 -4.1 0.8 -9.7 -3.9 -11.2 c -0.5 2.2 -1.4 3.8 -1.4 4 c -0.2 0.3 -0.6 0.5 -1 0.3 c -0.3 -0.2 -0.5 -0.6 -0.3 -1 c 0 0 0.9 -1.5 1.3 -3.6 l 0 0 C 58 9.5 53.6 4 48.2 5.1 c -2 -4 -7 -5.2 -10.5 -3 c 0 0 0 0 0 0 c -0.8 0.5 -1.2 1.3 -1.2 2.2 v 56 c 0 0.9 0.4 1.6 1.1 2.3 c 3.8 4.2 10.7 2.7 12.6 -2.5 c 4.6 1 9.4 -3.1 8.7 -8.2 c -1.7 0.3 -3.6 0.3 -5.9 -0.4 c -0.4 -0.1 -0.6 -0.5 -0.5 -0.9 c 0.1 -0.4 0.5 -0.6 0.9 -0.5 c 6.7 2 10.9 -2 10.9 -6.8 c 0 -2 -0.8 -3.8 -2 -5.1 C 66.1 35 65.9 29.1 61.8 26.2 z M 57.2 21.6 c 2.5 3.6 0.9 8.1 -0.5 7.2 c -0.3 -0.2 -0.4 -0.7 -0.2 -1 c 1.6 -2.5 -0.4 -5.4 -0.4 -5.4 C 55.4 21.7 56.6 20.8 57.2 21.6 z M 54.9 25.1 c 0 0.4 -0.4 0.7 -0.8 0.7 c -2.5 -0.1 -4.6 1 -6.2 2.2 c 2.9 1.3 5.6 2.6 6.4 4.7 c 0.1 0.4 -0.1 0.8 -0.4 0.9 c -0.4 0.1 -0.8 -0.1 -0.9 -0.4 c -0.7 -2.1 -5.7 -3.8 -6.6 -4.4 c -2.9 -1.5 -3.8 -4.6 -4 -7 c 0 -0.4 0.3 -0.8 0.7 -0.8 c 0.4 0 0.8 0.3 0.8 0.7 c 0.2 1.9 0.8 4.3 2.8 5.6 c 1.7 -1.5 4.4 -3.1 7.7 -2.9 C 54.6 24.3 54.9 24.7 54.9 25.1 z M 45.4 16.7 c -0.2 -0.3 -0.2 -0.8 0.2 -1 c 0.3 -0.2 0.8 -0.2 1 0.2 c 0.1 0.2 2.6 3.7 0.5 7 c -0.2 0.3 -0.7 0.4 -1 0.2 c -0.3 -0.2 -0.4 -0.7 -0.2 -1 C 47.5 19.6 45.5 16.7 45.4 16.7 z M 38.7 4.7 c 1.6 -1.1 3.7 -0.6 5 0.4 c 2.5 1.9 3 5.4 5.2 7.1 c 0.9 0.7 2.3 1.1 3.3 0.4 c 0.8 -0.5 1.6 0.7 0.8 1.2 c -1.8 1.2 -4.9 0.8 -7.2 -3.2 c -1.3 3.6 -5.2 2.2 -5.3 5.7 c 0 0.4 -0.3 0.7 -0.7 0.7 c 0 0 0 0 0 0 c -0.4 0 -0.7 -0.3 -0.7 -0.7 c 0.1 -3.5 3.4 -4.2 4.1 -4.6 c 1.1 -0.6 1.7 -2 1.4 -3.2 c 0 0 0 -0.1 0 -0.1 c -1.8 -3 -3.9 -3.2 -5 -2.5 c -0.3 0.2 -0.8 0.1 -1 -0.2 C 38.3 5.4 38.4 4.9 38.7 4.7 z M 38.6 31.9 c 0.4 -0.8 1.3 -1.2 2.3 -1.1 c 2.1 0.3 2.7 2.5 3.9 3 c 0.6 0.2 1.4 0 1.7 -0.6 c 0.2 -0.3 0.6 -0.5 1 -0.3 c 0.3 0.2 0.5 0.6 0.3 1 c -0.5 0.9 -1.5 1.4 -2.5 1.4 c -2.4 0 -3 -2.9 -4.6 -3.1 c -0.3 0 -0.7 0.1 -0.8 0.3 c -0.2 0.4 -0.6 0.5 -1 0.3 C 38.5 32.7 38.4 32.3 38.6 31.9 z M 39.1 39 c -0.1 -0.4 0.1 -0.8 0.4 -0.9 c 1.7 -0.6 3.2 -0.5 4.5 0.1 c 1.6 0.8 2.5 2.4 2.9 3.4 c 2.7 -1.4 7.1 -1.3 5.4 -4.8 c -0.2 -0.4 0 -0.8 0.3 -1 c 0.4 -0.2 0.8 0 1 0.3 c 0.6 1.3 0.7 2.4 0.2 3.4 c -1.2 2.5 -4.3 2 -6.9 3.8 c -3.3 2.2 -1.4 4.2 -2.9 4.2 c 0 0 0 0 0 0 c -0.4 0 -0.7 -0.3 -0.7 -0.7 c -0.1 -1.9 0.9 -3.3 2.4 -4.4 c -0.3 -0.7 -1 -2.2 -2.4 -2.9 c -1 -0.5 -2.1 -0.5 -3.4 -0.1 C 39.6 39.6 39.2 39.4 39.1 39 z M 52.8 54.8 c 0.3 -0.3 0.8 -0.3 1 0 c 0.3 0.3 0.3 0.8 0 1 c -1.5 1.4 -4.1 2.6 -6.5 2.3 c -1.2 3 -3.2 5.2 -6.4 4.6 c -0.4 -0.1 -0.7 -0.5 -0.6 -0.9 c 0.1 -0.4 0.5 -0.6 0.9 -0.6 c 2 0.4 3.6 -0.8 4.7 -3.5 c -2.2 -0.8 -4.1 -2.7 -5.6 -5.8 c -0.2 -0.4 0 -0.8 0.3 -1 c 0.4 -0.2 0.8 0 1 0.3 c 1.5 3.1 3.4 4.9 5.5 5.3 c 0 0 0 0 0 0 c 0 0 0 0 0 0 c 0 0 0 0 0.1 0 C 50.2 57.3 52.8 54.9 52.8 54.8 z M 54.9 46 c -0.9 0.8 -2.2 0.9 -3.1 1.3 c -1.2 0.4 -1.4 1.2 -1.1 1.6 c 0.6 0.8 -0.6 1.6 -1.2 0.9 C 49 49 49 48 49.5 47.2 c 1.1 -1.8 3.4 -1.4 4.4 -2.3 c 0.5 -0.4 0.6 -1.3 0.2 -1.8 c -0.2 -0.3 -0.2 -0.8 0.2 -1 c 0.3 -0.2 0.8 -0.2 1 0.2 C 56.1 43.4 55.9 45 54.9 46 z M 59.4 47.1 c -0.3 0.2 -0.8 0.2 -1 -0.1 c -0.2 -0.3 -0.2 -0.8 0.1 -1 c 1.9 -1.5 2.7 -4.5 0.6 -7.5 c -1.2 0.8 -2.8 1.2 -3.1 1.2 c -0.3 0 -0.6 -0.2 -0.7 -0.6 c -0.1 -0.4 0.1 -0.8 0.5 -0.9 c 2 -0.5 3.4 -1.5 4.3 -2.9 c 1.5 -2.6 0.6 -5.9 0.6 -5.9 c -0.1 -0.4 0.1 -0.8 0.5 -0.9 c 0.4 -0.1 0.8 0.1 0.9 0.5 c 0.8 2.6 0.4 6.3 -1.9 8.5 C 62.9 41.2 62 45.1 59.4 47.1 z" stroke-linecap="round"/>
</g>
		<g transform="matrix(13.9883 0 0 13.9883 -212.5311 -0.0826)" id="895704">
<path style="stroke: none; stroke-width: 1; stroke-dasharray: none; stroke-linecap: butt; stroke-dashoffset: 0; stroke-linejoin: miter; stroke-miterlimit: 4; is-custom-font: none; font-file-url: none; fill: rgb(136,57,239); fill-rule: nonzero; opacity: 1;" transform=" translate(-17.8, -33)" d="M 5.7 28.4 c -2.5 0 -4.6 2.1 -4.6 4.6 c 0 2.5 2.1 4.6 4.6 4.6 c 2.2 0 4 -1.5 4.5 -3.6 h 24.3 v -2 H 10.2 C 9.7 29.9 7.9 28.4 5.7 28.4 z M 5.7 35.6 c -1.4 0 -2.6 -1.2 -2.6 -2.6 c 0 -1.4 1.2 -2.6 2.6 -2.6 s 2.6 1.2 2.6 2.6 C 8.3 34.4 7.1 35.6 5.7 35.6 z" stroke-linecap="round"/>
</g>
		<g transform="matrix(13.9883 0 0 13.9883 -213.9299 -313.4212)" id="153753">
<path style="stroke: none; stroke-width: 1; stroke-dasharray: none; stroke-linecap: butt; stroke-dashoffset: 0; stroke-linejoin: miter; stroke-miterlimit: 4; is-custom-font: none; font-file-url: none; fill: rgb(136,57,239); fill-rule: nonzero; opacity: 1;" transform=" translate(-17.7, -10.6)" d="M 4.6 9.6 c 1.7 0 3.1 -1.1 3.5 -2.7 H 24 c 1.4 0 2.8 0.6 3.8 1.6 c 1 1 1.6 2.4 1.6 3.8 v 0.2 c 0 3.1 2.1 5.7 5 6.4 v -2.1 c -1.8 -0.6 -3 -2.3 -3 -4.3 v -0.2 c 0 -2 -0.8 -3.8 -2.2 -5.2 C 27.9 5.7 26 4.9 24 4.9 H 8.1 C 7.7 3.4 6.3 2.3 4.6 2.3 C 2.6 2.3 1 3.9 1 5.9 C 1 7.9 2.6 9.6 4.6 9.6 z M 4.6 4.3 c 0.9 0 1.6 0.7 1.6 1.6 c 0 0.9 -0.7 1.7 -1.6 1.7 S 3 6.8 3 5.9 C 3 5 3.7 4.3 4.6 4.3 z" stroke-linecap="round"/>
</g>
		<g transform="matrix(13.9883 0 0 13.9883 -190.1497 -144.8617)" id="170893">
<path style="stroke: none; stroke-width: 1; stroke-dasharray: none; stroke-linecap: butt; stroke-dashoffset: 0; stroke-linejoin: miter; stroke-miterlimit: 4; is-custom-font: none; font-file-url: none; fill: rgb(136,57,239); fill-rule: nonzero; opacity: 1;" transform=" translate(-19.4, -22.65)" d="M 34.4 26.8 H 22.8 c -1.5 0 -2.7 -1.2 -2.7 -2.7 c 0 -2.6 -2.1 -4.7 -4.7 -4.7 H 12 c -0.4 -1.6 -1.9 -2.9 -3.7 -2.9 c -2.1 0 -3.9 1.7 -3.9 3.9 c 0 2.1 1.7 3.9 3.9 3.9 c 1.8 0 3.3 -1.2 3.7 -2.9 h 3.4 c 1.5 0 2.7 1.2 2.7 2.7 c 0 2.6 2.1 4.7 4.7 4.7 h 11.6 V 26.8 z M 8.3 22.3 c -1 0 -1.9 -0.8 -1.9 -1.9 s 0.8 -1.9 1.9 -1.9 c 1 0 1.9 0.8 1.9 1.9 S 9.3 22.3 8.3 22.3 z" stroke-linecap="round"/>
</g>
		<g transform="matrix(13.9883 0 0 13.9883 -149.5835 -232.2888)" id="186893">
<path style="stroke: none; stroke-width: 1; stroke-dasharray: none; stroke-linecap: butt; stroke-dashoffset: 0; stroke-linejoin: miter; stroke-miterlimit: 4; is-custom-font: none; font-file-url: none; fill: rgb(136,57,239); fill-rule: nonzero; opacity: 1;" transform=" translate(-22.3, -16.4)" d="M 34.4 21.4 H 29 c -1.6 0 -2.9 -1.3 -2.9 -2.9 c 0 -1.8 -0.7 -3.5 -2 -4.7 c -1.2 -1.2 -2.9 -1.9 -4.7 -1.9 h -2.1 c -0.4 -1.5 -1.8 -2.6 -3.5 -2.6 c -2 0 -3.7 1.6 -3.7 3.6 c 0 2 1.6 3.7 3.7 3.7 c 1.7 0 3 -1.1 3.5 -2.7 h 2.1 c 1.2 0 2.4 0.5 3.3 1.4 c 0.9 0.9 1.4 2 1.4 3.3 c 0 2.7 2.2 4.9 4.9 4.9 h 5.5 V 21.4 z M 13.8 14.4 c -0.9 0 -1.7 -0.7 -1.7 -1.7 c 0 -0.9 0.7 -1.6 1.7 -1.6 c 0.9 0 1.6 0.7 1.6 1.6 C 15.5 13.7 14.7 14.4 13.8 14.4 z" stroke-linecap="round"/>
</g>
		<g transform="matrix(13.9883 0 0 13.9883 -213.9299 311.8571)" id="32780">
<path style="stroke: none; stroke-width: 1; stroke-dasharray: none; stroke-linecap: butt; stroke-dashoffset: 0; stroke-linejoin: miter; stroke-miterlimit: 4; is-custom-font: none; font-file-url: none; fill: rgb(136,57,239); fill-rule: nonzero; opacity: 1;" transform=" translate(-17.7, -55.3)" d="M 29.4 53.4 v 0.2 c 0 1.4 -0.6 2.8 -1.6 3.8 c -1 1 -2.4 1.6 -3.8 1.6 l -15.9 0 c -0.4 -1.5 -1.8 -2.7 -3.5 -2.7 c -2 0 -3.6 1.6 -3.6 3.7 c 0 2 1.6 3.6 3.6 3.6 c 1.7 0 3.1 -1.1 3.5 -2.6 l 15.9 0 c 2 0 3.8 -0.8 5.2 -2.2 c 1.4 -1.4 2.2 -3.3 2.2 -5.2 v -0.2 c 0 -2 1.3 -3.7 3 -4.3 V 47 C 31.6 47.8 29.4 50.3 29.4 53.4 z M 4.6 61.7 C 3.7 61.7 3 61 3 60.1 c 0 -0.9 0.7 -1.7 1.6 -1.7 c 0.9 0 1.6 0.7 1.6 1.7 C 6.3 61 5.6 61.7 4.6 61.7 z" stroke-linecap="round"/>
</g>
		<g transform="matrix(13.9883 0 0 13.9883 -190.1497 144.6967)" id="891399">
<path style="stroke: none; stroke-width: 1; stroke-dasharray: none; stroke-linecap: butt; stroke-dashoffset: 0; stroke-linejoin: miter; stroke-miterlimit: 4; is-custom-font: none; font-file-url: none; fill: rgb(136,57,239); fill-rule: nonzero; opacity: 1;" transform=" translate(-19.4, -43.35)" d="M 18.1 41.9 c 0 1.5 -1.2 2.7 -2.7 2.7 H 12 c -0.4 -1.7 -1.9 -2.9 -3.7 -2.9 c -2.1 0 -3.9 1.7 -3.9 3.9 c 0 2.1 1.7 3.9 3.9 3.9 c 1.8 0 3.3 -1.2 3.7 -2.9 h 3.4 c 2.6 0 4.7 -2.1 4.7 -4.7 c 0 -1.5 1.2 -2.7 2.7 -2.7 l 11.6 0 v -2 H 22.8 C 20.2 37.3 18.1 39.4 18.1 41.9 z M 8.3 47.5 c -1 0 -1.9 -0.8 -1.9 -1.9 c 0 -1 0.8 -1.9 1.9 -1.9 c 1 0 1.9 0.8 1.9 1.9 S 9.3 47.5 8.3 47.5 z" stroke-linecap="round"/>
</g>
		<g transform="matrix(13.9883 0 0 13.9883 -149.5835 235.5327)" id="16661">
<path style="stroke: none; stroke-width: 1; stroke-dasharray: none; stroke-linecap: butt; stroke-dashoffset: 0; stroke-linejoin: miter; stroke-miterlimit: 4; is-custom-font: none; font-file-url: none; fill: rgb(136,57,239); fill-rule: nonzero; opacity: 1;" transform=" translate(-22.3, -49.8437)" d="M 24.1 47.6 c 0 1.2 -0.5 2.4 -1.4 3.3 c -0.9 0.9 -2 1.4 -3.3 1.4 h -2.1 c -0.4 -1.5 -1.8 -2.7 -3.5 -2.7 c -2 0 -3.7 1.6 -3.7 3.7 c 0 2 1.6 3.6 3.7 3.6 c 1.7 0 3 -1.1 3.5 -2.6 h 2.1 c 1.8 0 3.5 -0.7 4.7 -1.9 c 1.3 -1.3 2 -2.9 2 -4.7 c 0 -1.6 1.3 -2.9 2.9 -2.9 h 5.5 v -2 H 29 C 26.3 42.6 24.1 44.8 24.1 47.6 z M 13.8 54.9 c -0.9 0 -1.7 -0.7 -1.7 -1.6 c 0 -0.9 0.7 -1.7 1.7 -1.7 c 0.9 0 1.6 0.7 1.6 1.7 C 15.5 54.1 14.7 54.9 13.8 54.9 z" stroke-linecap="round"/>
</g>
		<g transform="matrix(13.9883 0 0 13.9883 -212.5311 -0.0826)" id="926885">
<path style="stroke: none; stroke-width: 1; stroke-dasharray: none; stroke-linecap: butt; stroke-dashoffset: 0; stroke-linejoin: miter; stroke-miterlimit: 4; is-custom-font: none; font-file-url: none; fill: rgb(136,57,239); fill-rule: nonzero; opacity: 1;" transform=" translate(-17.8, -33)" d="M 5.7 28.4 c -2.5 0 -4.6 2.1 -4.6 4.6 c 0 2.5 2.1 4.6 4.6 4.6 c 2.2 0 4 -1.5 4.5 -3.6 h 24.3 v -2 H 10.2 C 9.7 29.9 7.9 28.4 5.7 28.4 z M 5.7 35.6 c -1.4 0 -2.6 -1.2 -2.6 -2.6 c 0 -1.4 1.2 -2.6 2.6 -2.6 s 2.6 1.2 2.6 2.6 C 8.3 34.4 7.1 35.6 5.7 35.6 z" stroke-linecap="round"/>
</g>
		<g transform="matrix(13.9883 0 0 13.9883 -213.9299 -313.4212)" id="539703">
<path style="stroke: none; stroke-width: 1; stroke-dasharray: none; stroke-linecap: butt; stroke-dashoffset: 0; stroke-linejoin: miter; stroke-miterlimit: 4; is-custom-font: none; font-file-url: none; fill: rgb(136,57,239); fill-rule: nonzero; opacity: 1;" transform=" translate(-17.7, -10.6)" d="M 4.6 9.6 c 1.7 0 3.1 -1.1 3.5 -2.7 H 24 c 1.4 0 2.8 0.6 3.8 1.6 c 1 1 1.6 2.4 1.6 3.8 v 0.2 c 0 3.1 2.1 5.7 5 6.4 v -2.1 c -1.8 -0.6 -3 -2.3 -3 -4.3 v -0.2 c 0 -2 -0.8 -3.8 -2.2 -5.2 C 27.9 5.7 26 4.9 24 4.9 H 8.1 C 7.7 3.4 6.3 2.3 4.6 2.3 C 2.6 2.3 1 3.9 1 5.9 C 1 7.9 2.6 9.6 4.6 9.6 z M 4.6 4.3 c 0.9 0 1.6 0.7 1.6 1.6 c 0 0.9 -0.7 1.7 -1.6 1.7 S 3 6.8 3 5.9 C 3 5 3.7 4.3 4.6 4.3 z" stroke-linecap="round"/>
</g>
		<g transform="matrix(13.9883 0 0 13.9883 -190.1497 -144.8617)" id="508254">
<path style="stroke: none; stroke-width: 1; stroke-dasharray: none; stroke-linecap: butt; stroke-dashoffset: 0; stroke-linejoin: miter; stroke-miterlimit: 4; is-custom-font: none; font-file-url: none; fill: rgb(136,57,239); fill-rule: nonzero; opacity: 1;" transform=" translate(-19.4, -22.65)" d="M 34.4 26.8 H 22.8 c -1.5 0 -2.7 -1.2 -2.7 -2.7 c 0 -2.6 -2.1 -4.7 -4.7 -4.7 H 12 c -0.4 -1.6 -1.9 -2.9 -3.7 -2.9 c -2.1 0 -3.9 1.7 -3.9 3.9 c 0 2.1 1.7 3.9 3.9 3.9 c 1.8 0 3.3 -1.2 3.7 -2.9 h 3.4 c 1.5 0 2.7 1.2 2.7 2.7 c 0 2.6 2.1 4.7 4.7 4.7 h 11.6 V 26.8 z M 8.3 22.3 c -1 0 -1.9 -0.8 -1.9 -1.9 s 0.8 -1.9 1.9 -1.9 c 1 0 1.9 0.8 1.9 1.9 S 9.3 22.3 8.3 22.3 z" stroke-linecap="round"/>
</g>
		<g transform="matrix(13.9883 0 0 13.9883 -149.5835 -232.2888)" id="847020">
<path style="stroke: none; stroke-width: 1; stroke-dasharray: none; stroke-linecap: butt; stroke-dashoffset: 0; stroke-linejoin: miter; stroke-miterlimit: 4; is-custom-font: none; font-file-url: none; fill: rgb(136,57,239); fill-rule: nonzero; opacity: 1;" transform=" translate(-22.3, -16.4)" d="M 34.4 21.4 H 29 c -1.6 0 -2.9 -1.3 -2.9 -2.9 c 0 -1.8 -0.7 -3.5 -2 -4.7 c -1.2 -1.2 -2.9 -1.9 -4.7 -1.9 h -2.1 c -0.4 -1.5 -1.8 -2.6 -3.5 -2.6 c -2 0 -3.7 1.6 -3.7 3.6 c 0 2 1.6 3.7 3.7 3.7 c 1.7 0 3 -1.1 3.5 -2.7 h 2.1 c 1.2 0 2.4 0.5 3.3 1.4 c 0.9 0.9 1.4 2 1.4 3.3 c 0 2.7 2.2 4.9 4.9 4.9 h 5.5 V 21.4 z M 13.8 14.4 c -0.9 0 -1.7 -0.7 -1.7 -1.7 c 0 -0.9 0.7 -1.6 1.7 -1.6 c 0.9 0 1.6 0.7 1.6 1.6 C 15.5 13.7 14.7 14.4 13.8 14.4 z" stroke-linecap="round"/>
</g>
		<g transform="matrix(13.9883 0 0 13.9883 -213.9299 311.8571)" id="361963">
<path style="stroke: none; stroke-width: 1; stroke-dasharray: none; stroke-linecap: butt; stroke-dashoffset: 0; stroke-linejoin: miter; stroke-miterlimit: 4; is-custom-font: none; font-file-url: none; fill: rgb(136,57,239); fill-rule: nonzero; opacity: 1;" transform=" translate(-17.7, -55.3)" d="M 29.4 53.4 v 0.2 c 0 1.4 -0.6 2.8 -1.6 3.8 c -1 1 -2.4 1.6 -3.8 1.6 l -15.9 0 c -0.4 -1.5 -1.8 -2.7 -3.5 -2.7 c -2 0 -3.6 1.6 -3.6 3.7 c 0 2 1.6 3.6 3.6 3.6 c 1.7 0 3.1 -1.1 3.5 -2.6 l 15.9 0 c 2 0 3.8 -0.8 5.2 -2.2 c 1.4 -1.4 2.2 -3.3 2.2 -5.2 v -0.2 c 0 -2 1.3 -3.7 3 -4.3 V 47 C 31.6 47.8 29.4 50.3 29.4 53.4 z M 4.6 61.7 C 3.7 61.7 3 61 3 60.1 c 0 -0.9 0.7 -1.7 1.6 -1.7 c 0.9 0 1.6 0.7 1.6 1.7 C 6.3 61 5.6 61.7 4.6 61.7 z" stroke-linecap="round"/>
</g>
		<g transform="matrix(13.9883 0 0 13.9883 -190.1497 144.6967)" id="246582">
<path style="stroke: none; stroke-width: 1; stroke-dasharray: none; stroke-linecap: butt; stroke-dashoffset: 0; stroke-linejoin: miter; stroke-miterlimit: 4; is-custom-font: none; font-file-url: none; fill: rgb(136,57,239); fill-rule: nonzero; opacity: 1;" transform=" translate(-19.4, -43.35)" d="M 18.1 41.9 c 0 1.5 -1.2 2.7 -2.7 2.7 H 12 c -0.4 -1.7 -1.9 -2.9 -3.7 -2.9 c -2.1 0 -3.9 1.7 -3.9 3.9 c 0 2.1 1.7 3.9 3.9 3.9 c 1.8 0 3.3 -1.2 3.7 -2.9 h 3.4 c 2.6 0 4.7 -2.1 4.7 -4.7 c 0 -1.5 1.2 -2.7 2.7 -2.7 l 11.6 0 v -2 H 22.8 C 20.2 37.3 18.1 39.4 18.1 41.9 z M 8.3 47.5 c -1 0 -1.9 -0.8 -1.9 -1.9 c 0 -1 0.8 -1.9 1.9 -1.9 c 1 0 1.9 0.8 1.9 1.9 S 9.3 47.5 8.3 47.5 z" stroke-linecap="round"/>
</g>
		<g transform="matrix(13.9883 0 0 13.9883 -149.5835 235.5327)" id="610436">
<path style="stroke: none; stroke-width: 1; stroke-dasharray: none; stroke-linecap: butt; stroke-dashoffset: 0; stroke-linejoin: miter; stroke-miterlimit: 4; is-custom-font: none; font-file-url: none; fill: rgb(136,57,239); fill-rule: nonzero; opacity: 1;" transform=" translate(-22.3, -49.8437)" d="M 24.1 47.6 c 0 1.2 -0.5 2.4 -1.4 3.3 c -0.9 0.9 -2 1.4 -3.3 1.4 h -2.1 c -0.4 -1.5 -1.8 -2.7 -3.5 -2.7 c -2 0 -3.7 1.6 -3.7 3.7 c 0 2 1.6 3.6 3.7 3.6 c 1.7 0 3 -1.1 3.5 -2.6 h 2.1 c 1.8 0 3.5 -0.7 4.7 -1.9 c 1.3 -1.3 2 -2.9 2 -4.7 c 0 -1.6 1.3 -2.9 2.9 -2.9 h 5.5 v -2 H 29 C 26.3 42.6 24.1 44.8 24.1 47.6 z M 13.8 54.9 c -0.9 0 -1.7 -0.7 -1.7 -1.6 c 0 -0.9 0.7 -1.7 1.7 -1.7 c 0.9 0 1.6 0.7 1.6 1.7 C 15.5 54.1 14.7 54.9 13.8 54.9 z" stroke-linecap="round"/>
</g>
</g>
</g>
</svg>