<?xml version="1.0" standalone="no"?>
<!DOCTYPE svg PUBLIC "-//W3C//DTD SVG 20010904//EN"
 "http://www.w3.org/TR/2001/REC-SVG-20010904/DTD/svg10.dtd">
<svg version="1.0" xmlns="http://www.w3.org/2000/svg"
 width="96.000000pt" height="96.000000pt" viewBox="0 0 96.000000 96.000000"
 preserveAspectRatio="xMidYMid meet">

<g transform="translate(0.000000,96.000000) scale(0.100000,-0.100000)"
fill="#000000" stroke="none">
<path d="M553 710 c-14 -25 -24 -30 -55 -30 -31 0 -38 -4 -38 -20 0 -17 7 -20
44 -20 40 0 46 3 70 40 25 38 27 60 6 60 -5 0 -17 -13 -27 -30z"/>
<path d="M665 585 c-34 -21 -53 -24 -122 -25 -76 0 -83 -2 -83 -20 0 -18 7
-20 81 -20 69 0 87 4 127 27 26 15 49 28 50 29 2 1 0 9 -5 18 -7 13 -14 12
-48 -9z"/>
<path d="M460 420 c0 -18 7 -20 81 -20 68 0 87 -4 124 -25 38 -23 43 -24 49
-9 4 9 5 18 4 19 -71 46 -100 55 -177 55 -74 0 -81 -2 -81 -20z"/>
<path d="M460 300 c0 -16 7 -20 38 -20 31 0 41 -5 55 -30 10 -16 22 -30 27
-30 21 0 19 22 -6 60 -24 37 -30 40 -70 40 -37 0 -44 -3 -44 -20z"/>
</g>
</svg>
